<svg width="794pt" height="257pt" viewBox="0.00 0.00 794.15 257.03" xmlns="http://www.w3.org/2000/svg" xmlns:xlink="http://www.w3.org/1999/xlink">
<g id="graph0" class="graph" transform="scale(1 1) rotate(0) translate(4 253.03)">
<title>DFA</title>
<polygon fill="white" stroke="none" points="-4,4 -4,-253.03 790.15,-253.03 790.15,4 -4,4"/>
<!-- EE -->
<g id="node1" class="node">
<title>EE</title>
<ellipse fill="none" stroke="black" cx="119.53" cy="-78.93" rx="78.93" ry="78.93"/>
<text text-anchor="middle" x="119.53" y="-83.13" font-family="Times,serif" font-size="14.00">EE</text>
<text text-anchor="middle" x="119.53" y="-66.33" font-family="Times,serif" font-size="14.00">(even V, even C)</text>
</g>
<!-- EO -->
<g id="node2" class="node">
<title>EO</title>
<ellipse fill="none" stroke="black" cx="322.9" cy="-169.93" rx="75.09" ry="75.09"/>
<ellipse fill="none" stroke="black" cx="322.9" cy="-169.93" rx="79.09" ry="79.09"/>
<text text-anchor="middle" x="322.9" y="-174.13" font-family="Times,serif" font-size="14.00">EO</text>
<text text-anchor="middle" x="322.9" y="-157.33" font-family="Times,serif" font-size="14.00">(even V, odd C)</text>
</g>
<!-- EE&#45;&gt;EO -->
<g id="edge6" class="edge">
<title>EE-&gt;EO</title>
<path fill="none" stroke="black" d="M187.56,-119.5C197.11,-124.65 206.93,-129.62 216.47,-133.93 222.83,-136.81 229.49,-139.59 236.24,-142.25"/>
<polygon fill="black" stroke="black" points="234.89,-145.48 245.49,-145.77 237.39,-138.94 234.89,-145.48"/>
<text text-anchor="middle" x="221.13" y="-141.75" font-family="Times,serif" font-size="14.00">C</text>
</g>
<!-- OE -->
<g id="node3" class="node">
<title>OE</title>
<ellipse fill="none" stroke="black" cx="711.05" cy="-78.93" rx="75.09" ry="75.09"/>
<text text-anchor="middle" x="711.05" y="-83.13" font-family="Times,serif" font-size="14.00">OE</text>
<text text-anchor="middle" x="711.05" y="-66.33" font-family="Times,serif" font-size="14.00">(odd V, even C)</text>
</g>
<!-- EE&#45;&gt;OE -->
<g id="edge2" class="edge">
<title>EE-&gt;OE</title>
<path fill="none" stroke="black" d="M198.82,-78.93C309.19,-78.93 509.81,-78.93 624.16,-78.93"/>
<polygon fill="black" stroke="black" points="624.12,-82.43 634.12,-78.93 624.12,-75.43 624.12,-82.43"/>
<text text-anchor="middle" x="425.05" y="-83.13" font-family="Times,serif" font-size="14.00">V</text>
</g>
<!-- EO&#45;&gt;EE -->
<g id="edge7" class="edge">
<title>EO-&gt;EE</title>
<path fill="none" stroke="black" d="M255.44,-128.13C245.68,-122.73 235.61,-117.56 225.8,-113.13 219.54,-110.31 212.97,-107.6 206.3,-105.04"/>
<polygon fill="black" stroke="black" points="207.79,-101.86 197.2,-101.66 205.36,-108.42 207.79,-101.86"/>
<text text-anchor="middle" x="221.13" y="-117.33" font-family="Times,serif" font-size="14.00">C</text>
</g>
<!-- OO -->
<g id="node4" class="node">
<title>OO</title>
<ellipse fill="none" stroke="black" cx="519.36" cy="-161.93" rx="71.26" ry="71.26"/>
<text text-anchor="middle" x="519.36" y="-166.13" font-family="Times,serif" font-size="14.00">OO</text>
<text text-anchor="middle" x="519.36" y="-149.33" font-family="Times,serif" font-size="14.00">(odd V, odd C)</text>
</g>
<!-- EO&#45;&gt;OO -->
<g id="edge3" class="edge">
<title>EO-&gt;OO</title>
<path fill="none" stroke="black" d="M402.15,-166.71C413.47,-166.25 425.15,-165.77 436.53,-165.3"/>
<polygon fill="black" stroke="black" points="436.44,-168.81 446.29,-164.9 436.15,-161.81 436.44,-168.81"/>
<text text-anchor="middle" x="425.05" y="-170.13" font-family="Times,serif" font-size="14.00">V</text>
</g>
<!-- OE&#45;&gt;EE -->
<g id="edge4" class="edge">
<title>OE-&gt;EE</title>
<path fill="none" stroke="black" d="M635.87,-71.91C579.49,-66.95 499.99,-60.73 430.1,-58.13 355.61,-55.37 271.19,-61.67 209.35,-68.05"/>
<polygon fill="black" stroke="black" points="209.15,-64.55 199.58,-69.08 209.89,-71.51 209.15,-64.55"/>
<text text-anchor="middle" x="425.05" y="-62.33" font-family="Times,serif" font-size="14.00">V</text>
</g>
<!-- OE&#45;&gt;OO -->
<g id="edge8" class="edge">
<title>OE-&gt;OO</title>
<path fill="none" stroke="black" d="M639.74,-103.4C629.22,-107.44 618.57,-111.75 608.62,-116.13 603.42,-118.42 598.1,-120.88 592.77,-123.43"/>
<polygon fill="black" stroke="black" points="591.37,-120.22 583.92,-127.75 594.44,-126.51 591.37,-120.22"/>
<text text-anchor="middle" x="613.29" y="-120.33" font-family="Times,serif" font-size="14.00">C</text>
</g>
<!-- OO&#45;&gt;EO -->
<g id="edge5" class="edge">
<title>OO-&gt;EO</title>
<path fill="none" stroke="black" d="M449.16,-147.49C442.74,-146.53 436.32,-145.72 430.1,-145.13 423.52,-144.51 416.76,-144.52 409.99,-145"/>
<polygon fill="black" stroke="black" points="409.69,-141.51 400.12,-146.06 410.44,-148.47 409.69,-141.51"/>
<text text-anchor="middle" x="425.05" y="-149.33" font-family="Times,serif" font-size="14.00">V</text>
</g>
<!-- OO&#45;&gt;OE -->
<g id="edge9" class="edge">
<title>OO-&gt;OE</title>
<path fill="none" stroke="black" d="M588.58,-143.96C598.57,-140.67 608.63,-136.98 617.96,-132.93 624.26,-130.2 630.67,-127.12 637.02,-123.86"/>
<polygon fill="black" stroke="black" points="638.4,-127.09 645.6,-119.31 635.12,-120.9 638.4,-127.09"/>
<text text-anchor="middle" x="613.29" y="-140.3" font-family="Times,serif" font-size="14.00">C</text>
</g>
<!-- start -->
<g id="node5" class="node">
<title>start</title>
<ellipse fill="black" stroke="black" cx="1.8" cy="-78.93" rx="1.8" ry="1.8"/>
</g>
<!-- start&#45;&gt;EE -->
<g id="edge1" class="edge">
<title>start-&gt;EE</title>
<path fill="none" stroke="black" d="M4.1,-78.93C7.42,-78.93 16.82,-78.93 28.9,-78.93"/>
<polygon fill="black" stroke="black" points="28.6,-82.43 38.6,-78.93 28.6,-75.43 28.6,-82.43"/>
</g>
</g>
</svg>