<svg xmlns="http://www.w3.org/2000/svg" version="1.1" width="1920" height="1080" preserveAspectRatio="none" viewBox="0 0 1920 1080">
	<rect width="1920" height="1080" x="0" y="0" fill="#131621"/>
	<line x1="277" y1="921" x2="345" y2="738" stroke="#00bb77" stroke-width="0.5"/>
	<line x1="277" y1="921" x2="328" y2="854" stroke="#00bb77" stroke-width="0.5"/>
	<line x1="277" y1="921" x2="191" y2="982" stroke="#00bb77" stroke-width="0.5"/>
	<line x1="277" y1="921" x2="201" y2="779" stroke="#00bb77" stroke-width="0.5"/>
	<line x1="771" y1="803" x2="911" y2="975" stroke="#00bb77" stroke-width="0.5"/>
	<line x1="771" y1="803" x2="864" y2="845" stroke="#00bb77" stroke-width="0.5"/>
	<line x1="771" y1="803" x2="568" y2="703" stroke="#00bb77" stroke-width="0.5"/>
	<line x1="1321" y1="40" x2="1092" y2="62" stroke="#00bb77" stroke-width="0.5"/>
	<line x1="1321" y1="40" x2="1287" y2="163" stroke="#00bb77" stroke-width="0.5"/>
	<line x1="1321" y1="40" x2="1502" y2="192" stroke="#00bb77" stroke-width="0.5"/>
	<line x1="911" y1="975" x2="924" y2="1003" stroke="#00bb77" stroke-width="0.5"/>
	<line x1="911" y1="975" x2="917" y2="1015" stroke="#00bb77" stroke-width="0.5"/>
	<line x1="911" y1="975" x2="864" y2="845" stroke="#00bb77" stroke-width="0.5"/>
	<line x1="911" y1="975" x2="1020" y2="831" stroke="#00bb77" stroke-width="0.5"/>
	<line x1="559" y1="304" x2="763" y2="445" stroke="#00bb77" stroke-width="0.5"/>
	<line x1="559" y1="304" x2="616" y2="369" stroke="#00bb77" stroke-width="0.5"/>
	<line x1="559" y1="304" x2="396" y2="474" stroke="#00bb77" stroke-width="0.5"/>
	<line x1="559" y1="304" x2="503" y2="100" stroke="#00bb77" stroke-width="0.5"/>
	<line x1="559" y1="304" x2="651" y2="521" stroke="#00bb77" stroke-width="0.5"/>
	<line x1="924" y1="1003" x2="917" y2="1015" stroke="#00bb77" stroke-width="0.5"/>
	<line x1="924" y1="1003" x2="864" y2="845" stroke="#00bb77" stroke-width="0.5"/>
	<line x1="924" y1="1003" x2="1020" y2="831" stroke="#00bb77" stroke-width="0.5"/>
	<line x1="1329" y1="832" x2="1406" y2="976" stroke="#00bb77" stroke-width="0.5"/>
	<line x1="1329" y1="832" x2="1207" y2="796" stroke="#00bb77" stroke-width="0.5"/>
	<line x1="1329" y1="832" x2="1242" y2="1051" stroke="#00bb77" stroke-width="0.5"/>
	<line x1="1650" y1="794" x2="1570" y2="960" stroke="#00bb77" stroke-width="0.5"/>
	<line x1="1650" y1="794" x2="1681" y2="698" stroke="#00bb77" stroke-width="0.5"/>
	<line x1="1650" y1="794" x2="1878" y2="795" stroke="#00bb77" stroke-width="0.5"/>
	<line x1="1650" y1="794" x2="1639" y2="916" stroke="#00bb77" stroke-width="0.5"/>
	<line x1="731" y1="68" x2="975" y2="20" stroke="#00bb77" stroke-width="0.5"/>
	<line x1="731" y1="68" x2="617" y2="55" stroke="#00bb77" stroke-width="0.5"/>
	<line x1="731" y1="68" x2="503" y2="100" stroke="#00bb77" stroke-width="0.5"/>
	<line x1="731" y1="68" x2="760" y2="145" stroke="#00bb77" stroke-width="0.5"/>
	<line x1="975" y1="20" x2="1092" y2="62" stroke="#00bb77" stroke-width="0.5"/>
	<line x1="975" y1="20" x2="981" y2="120" stroke="#00bb77" stroke-width="0.5"/>
	<line x1="975" y1="20" x2="760" y2="145" stroke="#00bb77" stroke-width="0.5"/>
	<line x1="763" y1="445" x2="616" y2="369" stroke="#00bb77" stroke-width="0.5"/>
	<line x1="763" y1="445" x2="593" y2="608" stroke="#00bb77" stroke-width="0.5"/>
	<line x1="763" y1="445" x2="928" y2="365" stroke="#00bb77" stroke-width="0.5"/>
	<line x1="763" y1="445" x2="651" y2="521" stroke="#00bb77" stroke-width="0.5"/>
	<line x1="1092" y1="62" x2="981" y2="120" stroke="#00bb77" stroke-width="0.5"/>
	<line x1="1092" y1="62" x2="1287" y2="163" stroke="#00bb77" stroke-width="0.5"/>
	<line x1="1570" y1="960" x2="1406" y2="976" stroke="#00bb77" stroke-width="0.5"/>
	<line x1="1570" y1="960" x2="1639" y2="916" stroke="#00bb77" stroke-width="0.5"/>
	<line x1="617" y1="55" x2="503" y2="100" stroke="#00bb77" stroke-width="0.5"/>
	<line x1="617" y1="55" x2="435" y2="13" stroke="#00bb77" stroke-width="0.5"/>
	<line x1="617" y1="55" x2="760" y2="145" stroke="#00bb77" stroke-width="0.5"/>
	<line x1="1909" y1="740" x2="1681" y2="698" stroke="#00bb77" stroke-width="0.5"/>
	<line x1="1909" y1="740" x2="1878" y2="795" stroke="#00bb77" stroke-width="0.5"/>
	<line x1="616" y1="369" x2="593" y2="608" stroke="#00bb77" stroke-width="0.5"/>
	<line x1="616" y1="369" x2="396" y2="474" stroke="#00bb77" stroke-width="0.5"/>
	<line x1="616" y1="369" x2="651" y2="521" stroke="#00bb77" stroke-width="0.5"/>
	<line x1="468" y1="575" x2="345" y2="738" stroke="#00bb77" stroke-width="0.5"/>
	<line x1="468" y1="575" x2="593" y2="608" stroke="#00bb77" stroke-width="0.5"/>
	<line x1="468" y1="575" x2="396" y2="474" stroke="#00bb77" stroke-width="0.5"/>
	<line x1="468" y1="575" x2="568" y2="703" stroke="#00bb77" stroke-width="0.5"/>
	<line x1="468" y1="575" x2="344" y2="576" stroke="#00bb77" stroke-width="0.5"/>
	<line x1="468" y1="575" x2="651" y2="521" stroke="#00bb77" stroke-width="0.5"/>
	<line x1="1641" y1="506" x2="1681" y2="698" stroke="#00bb77" stroke-width="0.5"/>
	<line x1="1641" y1="506" x2="1743" y2="325" stroke="#00bb77" stroke-width="0.5"/>
	<line x1="917" y1="1015" x2="864" y2="845" stroke="#00bb77" stroke-width="0.5"/>
	<line x1="917" y1="1015" x2="1020" y2="831" stroke="#00bb77" stroke-width="0.5"/>
	<line x1="1406" y1="976" x2="1242" y2="1051" stroke="#00bb77" stroke-width="0.5"/>
	<line x1="1406" y1="976" x2="1639" y2="916" stroke="#00bb77" stroke-width="0.5"/>
	<line x1="345" y1="738" x2="328" y2="854" stroke="#00bb77" stroke-width="0.5"/>
	<line x1="345" y1="738" x2="568" y2="703" stroke="#00bb77" stroke-width="0.5"/>
	<line x1="345" y1="738" x2="344" y2="576" stroke="#00bb77" stroke-width="0.5"/>
	<line x1="345" y1="738" x2="201" y2="779" stroke="#00bb77" stroke-width="0.5"/>
	<line x1="593" y1="608" x2="396" y2="474" stroke="#00bb77" stroke-width="0.5"/>
	<line x1="593" y1="608" x2="568" y2="703" stroke="#00bb77" stroke-width="0.5"/>
	<line x1="593" y1="608" x2="651" y2="521" stroke="#00bb77" stroke-width="0.5"/>
	<line x1="328" y1="854" x2="191" y2="982" stroke="#00bb77" stroke-width="0.5"/>
	<line x1="328" y1="854" x2="201" y2="779" stroke="#00bb77" stroke-width="0.5"/>
	<line x1="1207" y1="796" x2="1020" y2="831" stroke="#00bb77" stroke-width="0.5"/>
	<line x1="981" y1="120" x2="760" y2="145" stroke="#00bb77" stroke-width="0.5"/>
	<line x1="864" y1="845" x2="1020" y2="831" stroke="#00bb77" stroke-width="0.5"/>
	<line x1="396" y1="474" x2="344" y2="576" stroke="#00bb77" stroke-width="0.5"/>
	<line x1="191" y1="982" x2="201" y2="779" stroke="#00bb77" stroke-width="0.5"/>
	<line x1="568" y1="703" x2="651" y2="521" stroke="#00bb77" stroke-width="0.5"/>
	<line x1="344" y1="576" x2="201" y2="779" stroke="#00bb77" stroke-width="0.5"/>
	<line x1="1287" y1="163" x2="1502" y2="192" stroke="#00bb77" stroke-width="0.5"/>
	<line x1="1681" y1="698" x2="1878" y2="795" stroke="#00bb77" stroke-width="0.5"/>
	<line x1="1681" y1="698" x2="1639" y2="916" stroke="#00bb77" stroke-width="0.5"/>
	<line x1="1829" y1="327" x2="1743" y2="325" stroke="#00bb77" stroke-width="0.5"/>
	<line x1="503" y1="100" x2="435" y2="13" stroke="#00bb77" stroke-width="0.5"/>
	<line x1="1403" y1="397" x2="1502" y2="192" stroke="#00bb77" stroke-width="0.5"/>
	<circle cx="277" cy="921" r="5" fill="#00bb77"/>
	<circle cx="345" cy="738" r="5" fill="#00bb77"/>
	<circle cx="328" cy="854" r="5" fill="#00bb77"/>
	<circle cx="191" cy="982" r="5" fill="#00bb77"/>
	<circle cx="201" cy="779" r="5" fill="#00bb77"/>
	<circle cx="771" cy="803" r="5" fill="#00bb77"/>
	<circle cx="911" cy="975" r="5" fill="#00bb77"/>
	<circle cx="864" cy="845" r="5" fill="#00bb77"/>
	<circle cx="568" cy="703" r="5" fill="#00bb77"/>
	<circle cx="1321" cy="40" r="5" fill="#00bb77"/>
	<circle cx="1092" cy="62" r="5" fill="#00bb77"/>
	<circle cx="1287" cy="163" r="5" fill="#00bb77"/>
	<circle cx="1502" cy="192" r="5" fill="#00bb77"/>
	<circle cx="924" cy="1003" r="5" fill="#00bb77"/>
	<circle cx="917" cy="1015" r="5" fill="#00bb77"/>
	<circle cx="1020" cy="831" r="5" fill="#00bb77"/>
	<circle cx="559" cy="304" r="5" fill="#00bb77"/>
	<circle cx="763" cy="445" r="5" fill="#00bb77"/>
	<circle cx="616" cy="369" r="5" fill="#00bb77"/>
	<circle cx="396" cy="474" r="5" fill="#00bb77"/>
	<circle cx="503" cy="100" r="5" fill="#00bb77"/>
	<circle cx="651" cy="521" r="5" fill="#00bb77"/>
	<circle cx="1329" cy="832" r="5" fill="#00bb77"/>
	<circle cx="1406" cy="976" r="5" fill="#00bb77"/>
	<circle cx="1207" cy="796" r="5" fill="#00bb77"/>
	<circle cx="1242" cy="1051" r="5" fill="#00bb77"/>
	<circle cx="1650" cy="794" r="5" fill="#00bb77"/>
	<circle cx="1570" cy="960" r="5" fill="#00bb77"/>
	<circle cx="1681" cy="698" r="5" fill="#00bb77"/>
	<circle cx="1878" cy="795" r="5" fill="#00bb77"/>
	<circle cx="1639" cy="916" r="5" fill="#00bb77"/>
	<circle cx="731" cy="68" r="5" fill="#00bb77"/>
	<circle cx="975" cy="20" r="5" fill="#00bb77"/>
	<circle cx="617" cy="55" r="5" fill="#00bb77"/>
	<circle cx="760" cy="145" r="5" fill="#00bb77"/>
	<circle cx="981" cy="120" r="5" fill="#00bb77"/>
	<circle cx="593" cy="608" r="5" fill="#00bb77"/>
	<circle cx="928" cy="365" r="5" fill="#00bb77"/>
	<circle cx="435" cy="13" r="5" fill="#00bb77"/>
	<circle cx="1909" cy="740" r="5" fill="#00bb77"/>
	<circle cx="468" cy="575" r="5" fill="#00bb77"/>
	<circle cx="344" cy="576" r="5" fill="#00bb77"/>
	<circle cx="1641" cy="506" r="5" fill="#00bb77"/>
	<circle cx="1743" cy="325" r="5" fill="#00bb77"/>
	<circle cx="1829" cy="327" r="5" fill="#00bb77"/>
	<circle cx="1403" cy="397" r="5" fill="#00bb77"/>
</svg>